<?xml version="1.0" encoding="UTF-8"?>
<svg width="2278px" height="994px" viewBox="0 0 2278 994" version="1.1" xmlns="http://www.w3.org/2000/svg" xmlns:xlink="http://www.w3.org/1999/xlink">
    <!-- Generator: Sketch 52.3 (67297) - http://www.bohemiancoding.com/sketch -->
    <title>xhdpi/lh_logo</title>
    <desc>Created with Sketch.</desc>
    <g id="lh_logo" stroke="none" stroke-width="1" fill="none" fill-rule="evenodd">
        <rect fill="#FFFFFF" x="0" y="0" width="2278" height="994"></rect>
        <g id="lh_logo_STANDARD_blue_rgb" transform="translate(425.000000, 382.000000)" fill="#05164D" fill-rule="nonzero">
            <path d="M1291.72354,77.9814943 C1259.0869,77.9814943 1243.31452,90.4676681 1242.00123,113.905441 L1274.20094,113.905441 C1274.63963,107.771345 1278.14316,103.17294 1291.72354,103.17294 C1303.77173,103.17294 1309.46695,107.115202 1309.46695,113.029687 C1309.46695,118.286401 1306.18146,120.257537 1298.07622,121.133291 L1277.04833,123.323497 C1248.57281,126.391084 1235.64739,138.219515 1235.64739,159.6867 C1235.64739,179.619265 1247.91448,194.951798 1273.98189,194.951798 C1291.72354,194.951798 1302.23924,189.256923 1311.43813,177.865583 L1311.43813,191.666758 L1341.66681,191.666758 L1341.66681,119.162155 C1341.66681,88.7161606 1323.92384,77.9814943 1291.72354,77.9814943 Z M1310.12528,148.734562 C1310.12528,160.781525 1298.73235,169.762518 1281.20975,169.762518 C1272.66743,169.762518 1267.62805,165.819169 1267.62805,158.37116 C1267.62805,152.676294 1271.13333,147.857182 1282.30399,146.324736 L1301.36347,143.695301 C1304.64736,143.258237 1308.15264,142.600467 1310.12528,141.943245 L1310.12528,148.734562 Z M1185.26886,122.447195 C1213.30665,126.172013 1227.32529,134.933387 1227.32529,157.933018 C1227.32529,181.15278 1210.89692,194.952347 1176.0677,194.952347 C1138.17262,194.952347 1124.8107,179.838885 1124.15449,157.713399 L1156.7907,157.713399 C1157.66867,165.819169 1163.36309,169.762518 1176.0677,169.762518 C1188.99152,169.762518 1194.24878,166.694923 1194.24878,160.562454 C1194.24878,154.867049 1189.86897,152.239222 1178.47757,150.705698 L1166.8672,149.171096 C1142.55367,145.886056 1128.53504,136.467451 1128.53504,114.562124 C1128.53504,93.5336376 1144.08719,77.9809461 1176.72654,77.9809461 C1206.95303,77.9809461 1223.16351,90.0284477 1224.69592,113.904901 L1192.49563,113.904901 C1191.40087,107.553892 1187.89567,103.610004 1176.72654,103.610004 C1165.77281,103.610004 1161.61096,107.334273 1161.61096,112.153924 C1161.61096,116.971401 1164.24032,119.600307 1173.65798,120.915299 L1185.26886,122.447195 Z M1072.12131,77.9809461 C1100.818,77.9809461 1115.49431,90.6851216 1115.49431,127.047228 L1115.49431,191.666758 L1082.41671,191.666758 L1082.41671,128.580212 C1082.41671,113.904901 1076.06462,107.334272 1062.26452,107.334272 C1049.77838,107.334272 1042.33198,113.904901 1042.33198,128.580212 L1042.33198,191.666758 L1009.25598,191.666758 L1009.25598,81.2670644 L1040.36028,81.2670644 L1040.36028,93.9723271 C1044.96031,85.4284156 1054.37841,77.9809461 1072.12131,77.9809461 Z M945.696716,77.9814943 C913.058313,77.9814943 897.286523,90.4676681 895.972573,113.905441 L928.17236,113.905441 C928.610465,107.771345 932.115673,103.171313 945.696716,103.171313 C957.744173,103.171313 963.439029,107.115202 963.439029,113.02806 C963.439029,118.286401 960.152362,120.257537 952.048731,121.133291 L931.020848,123.323497 C902.543787,126.389466 889.619974,138.218967 889.619974,159.6867 C889.619974,179.619265 901.886556,194.951798 927.952722,194.951798 C945.696716,194.951798 956.210658,189.256923 965.410722,177.865583 L965.410722,191.666758 L995.639254,191.666758 L995.639254,119.162155 C995.639254,88.7145339 977.896868,77.9814943 945.696716,77.9814943 Z M964.09626,148.732945 C964.09626,160.780977 952.704865,169.762518 935.18219,169.762518 C926.63826,169.762518 921.600635,165.819169 921.600635,158.37116 C921.600635,152.676294 925.105769,147.857182 936.277015,146.324736 L955.334374,143.695301 C958.619944,143.256611 962.12464,142.600467 964.09626,141.943245 L964.09626,148.732945 Z M837.049097,77.9809461 C865.087395,77.9809461 879.763775,90.6851216 879.763775,127.047228 L879.763775,191.666758 L846.686169,191.666758 L846.686169,128.580212 C846.686169,113.904901 840.334082,107.334273 826.534497,107.334273 C814.048351,107.334273 806.601365,113.904901 806.601365,128.580212 L806.601365,191.666758 L773.525442,191.666758 L773.525442,38.5523173 L806.819979,38.5523173 L806.819979,91.999574 C812.515933,83.8943525 821.496871,77.9809461 837.049097,77.9809461 Z M738.627052,81.2665344 L763.817447,81.2665344 L763.817447,108.209487 L738.627052,108.209487 L738.627052,151.14277 C738.627052,162.97174 744.760599,166.03824 754.398842,166.03824 C758.341058,166.03824 763.817447,165.381557 763.817447,165.381557 L763.817447,191.885829 C763.817447,191.885829 756.151409,193.637354 748.046681,193.637354 C721.542482,193.637354 705.55164,181.590392 705.55164,154.867049 L705.55164,108.209487 L688.904078,108.209487 L688.904078,81.2665339 L705.55164,81.2665339 L705.55164,49.066844 L738.627052,49.066844 L738.627052,81.2665344 L738.627052,81.2665344 Z M622.971722,77.1051741 C622.971722,50.3818316 639.83936,36.1425009 666.343705,36.1425009 C674.887635,36.1425009 680.363366,37.4569447 680.363366,37.4569447 L680.363366,64.1803102 C680.363366,64.1803102 675.763334,63.7437769 671.819509,63.7437769 C661.524035,63.7437769 656.047135,67.2484364 656.047135,76.8861034 L656.047135,81.2665344 L680.363366,81.2665344 L680.363366,108.209487 L656.047135,108.209487 L656.047135,191.666758 L622.971722,191.666758 L622.971722,108.209487 L606.324673,108.209487 L606.324673,81.2665344 L622.971722,81.2665344 L622.971722,77.1051741 Z M564.48573,81.2665344 L597.561178,81.2665344 L597.561178,191.666758 L566.457422,191.666758 L566.457422,178.961505 C561.856842,187.504868 552.438785,194.951798 535.132969,194.951798 C506.877154,194.951798 492.200737,182.247075 492.200737,145.885507 L492.200737,81.2665344 L525.276771,81.2665344 L525.276771,144.351444 C525.276771,159.028373 531.629918,165.599001 544.991325,165.599001 C557.038854,165.599001 564.485729,159.028373 564.485729,144.351444 L564.485729,81.2665344 L564.48573,81.2665344 Z M418.818763,160.780977 L484.752216,160.780977 L484.752216,191.666758 L383.333516,191.666758 L383.333516,38.3327143 L418.818763,38.3327143 L418.818763,160.780977 Z M115.000274,0 C51.4057892,0 0,51.4047197 0,114.999735 C0,178.59475 51.4057892,230 115.000274,230 C178.595289,230 230.000548,178.594741 230.000548,114.999735 C230.000548,51.4047288 178.595289,0 115.000274,0 Z M115.000274,223.099422 C55.3156105,223.099422 6.90058746,174.684403 6.90058746,114.999735 C6.90058746,55.3150671 55.3156109,6.89951077 115.000274,6.89951077 C174.684937,6.89951077 223.099952,55.3150733 223.099952,114.999736 C223.099952,174.6844 174.684933,223.099422 115.000274,223.099422 Z M159.591486,92.1320952 C158.717341,92.1320952 157.981676,92.154825 157.567863,92.2007958 C157.084829,93.0749318 156.371884,94.2476601 155.313836,95.8807119 C171.779616,95.8807119 186.728093,97.237352 203.262564,100.203793 L198.594389,104.711326 C183.669162,102.066746 171.273843,101.009238 155.475037,101.009238 C153.175551,101.009238 152.692498,101.009238 152.140763,101.031949 C151.588479,101.859566 150.34652,103.469357 149.10509,104.964478 C150.50772,104.872526 153.22154,104.826546 156.969618,104.826546 C169.963182,104.826546 182.10534,105.792094 195.282844,107.908198 L190.614102,112.438451 C180.587509,110.87463 168.330139,109.977783 157.337441,109.977783 C153.428163,109.977783 148.989861,110.115715 145.011371,110.345607 C144.114515,111.380395 141.769048,113.910312 141.056113,114.691948 C146.322031,114.140204 152.117503,113.887052 159.016473,113.887052 C168.836425,113.887052 178.219331,114.531296 187.095935,115.841956 L182.427192,120.326229 C176.103236,119.544593 168.422081,119.084809 161.638341,119.084809 C144.137774,119.084809 130.339304,122.878857 116.081042,131.594799 C129.67234,146.174905 151.933591,155.396602 173.504618,155.396602 L175.528223,155.396602 L167.985548,162.687213 C136.870424,156.845761 104.122795,143.162493 76.4576853,124.419418 C49.8500927,106.459058 40.5364305,101.147159 19.7703041,91.9714426 L19.6323635,86.6357546 L33.6834435,92.6611369 L38.4668483,88.8665308 L84.3454654,109.885823 L81.3557735,112.277251 L57.807108,102.044025 L55.4843758,103.860449 L67.7190337,110.690719 C78.0447677,116.44022 85.9092857,119.015569 93.1766273,119.015569 C109.067403,119.015569 123.325656,107.746998 132.524102,87.9469539 C139.446332,87.0495581 146.828345,86.6357546 155.704912,86.6357546 C173.918433,86.6357546 191.60293,88.3834872 211.633396,92.1320948 L206.758031,96.8462687 C194.294037,94.2476601 173.113545,92.1320952 159.591486,92.1320952 Z" id="Shape"></path>
        </g>
    </g>
</svg>