<?xml version="1.0" encoding="UTF-8"?>
<svg width="2278px" height="994px" viewBox="0 0 2278 994" version="1.1" xmlns="http://www.w3.org/2000/svg" xmlns:xlink="http://www.w3.org/1999/xlink">
    <!-- Generator: Sketch 52.3 (67297) - http://www.bohemiancoding.com/sketch -->
    <title>xhdpi/lhg_logo</title>
    <desc>Created with Sketch.</desc>
    <g id="lhg_logo" stroke="none" stroke-width="1" fill="none" fill-rule="evenodd">
        <rect fill="#FFFFFF" x="0" y="0" width="2278" height="994"></rect>
        <g id="LHG_Wordmark_blue_rgb" transform="translate(151.000000, 422.000000)" fill="#05164D">
            <path d="M1714.28571,2.79503106 L1714.28571,90.7066694 C1714.28571,125.706149 1733.87596,150 1778.21153,150 C1822.33732,150 1841.92547,125.706149 1841.92547,90.7066694 L1841.92547,2.79503106 L1808.52008,2.79503106 L1808.52008,88.6459796 C1808.52008,110.676215 1798.41783,120.35236 1778.21146,120.35236 C1757.79358,120.35236 1747.69155,110.676215 1747.69155,88.6459796 L1747.69155,2.79503106 L1714.28571,2.79503106 Z" id="Path"></path>
            <path d="M1399.28422,69.4366419 L1339.83585,69.4366419 L1339.83585,98.4096588 L1365.96251,98.4096588 L1365.96251,111.555926 C1356.39413,117.988004 1344.97077,121.093048 1333.45838,120.391044 C1304.66219,120.391044 1292.3189,105.186448 1292.3189,74.9878316 C1292.3189,44.7856238 1304.86898,29.5827483 1332.22705,29.5827483 C1352.17922,29.5827483 1360.82034,34.3092142 1365.3419,48.4846459 L1400.31056,48.4846459 C1396.40392,19.1046176 1376.65466,0 1332.22705,0 C1279.97561,0 1257.76398,29.79138 1257.76398,74.9878316 C1257.76398,120.182338 1279.97561,149.971473 1333.25548,149.971473 C1357.40193,150.553431 1380.91392,142.214001 1399.2843,126.551816 L1399.28422,69.4366419 Z" id="Path"></path>
            <path d="M1062.23842,45.4118491 C1059.36103,14.792092 1041.08842,0 1003.92152,0 C963.880146,0 945.812247,19.1082517 945.812247,45.0025148 C945.812247,72.3293355 961.005902,84.6574137 987.493471,87.9462334 L1007.82545,90.4122682 C1025.89155,92.6696316 1030.61559,97.3990174 1030.61559,105.617661 C1030.61559,115.481726 1023.22486,121.025813 1003.30589,121.025813 C979.487111,121.025813 975.176005,111.7817 973.943032,100.071553 L940.062112,100.071553 C942.319907,130.478447 957.924778,150 1003.30559,150 C1043.55205,150 1064.90683,134.178547 1064.90683,103.563131 C1064.90683,75.0017963 1048.47878,61.6446569 1018.29379,57.9443323 L997.965927,55.4824141 C984.620946,53.8390895 980.103485,50.341748 980.103485,42.7410349 C980.103485,34.9315755 985.442106,28.3541606 1003.92122,28.3541606 C1021.78471,28.3541606 1026.71339,35.3409098 1028.3575,45.4116245 L1062.23842,45.4118491 Z" id="Path"></path>
            <polygon id="Path" points="893.794677 92.6820353 825.904844 3.72670807 794.720497 3.72670807 794.720497 147.204969 827.951924 147.204969 827.951924 58.2421759 895.841757 147.204969 927.018634 147.204969 927.018634 3.72670807 893.794677 3.72670807"></polygon>
            <path d="M1928.03079,3.72670807 L1861.49068,3.72670807 L1861.49068,147.204969 L1894.76062,147.204969 L1894.76062,95.5504537 L1928.03079,95.5504537 C1959.86297,95.5504537 1976.08696,76.6977487 1976.08696,49.636565 C1976.08696,20.32778 1959.65636,3.72678274 1928.03079,3.72678274 M1922.69029,66.6500655 L1894.76062,66.6502148 L1894.76062,32.6275442 L1922.69029,32.6275442 C1936.03839,32.6275442 1941.58355,38.1618072 1941.58355,49.6367143 C1941.58355,61.1178183 1936.03839,66.6502148 1922.69029,66.6502148" id="Shape" fill-rule="nonzero"></path>
            <path d="M1623.44803,0 C1570.22971,0 1548.4472,31.8461089 1548.4472,74.9989521 C1548.4472,118.151795 1570.22971,150 1623.44803,150 C1676.66238,150 1698.4472,118.15202 1698.4472,74.9989521 C1698.4472,31.8458844 1676.66298,0 1623.44803,0 M1623.44803,120.411511 C1595.50157,120.411511 1582.96904,103.971673 1582.96904,74.999027 C1582.96904,46.0263812 1595.50157,29.5891631 1623.44803,29.5891631 C1651.39261,29.5891631 1663.9253,46.0269051 1663.9253,74.999027 C1663.9253,103.971149 1651.39261,120.411511 1623.44803,120.411511" id="Shape" fill-rule="nonzero"></path>
            <path d="M1536.05215,126.296425 C1532.77163,104.571462 1524.56851,91.6574803 1512.67213,84.4818015 C1527.57396,78.9585344 1537.02371,64.2504369 1535.84798,48.4096621 C1535.84798,21.1502208 1519.64568,3.72670807 1486.00974,3.72670807 L1418.9441,3.72670807 L1418.9441,147.204969 L1452.16962,147.20482 L1452.16962,95.550385 L1472.67962,95.550385 C1490.31983,95.550385 1499.34179,107.031471 1502.42023,129.166846 L1504.88168,147.204969 L1539.13043,147.204969 L1536.05215,126.296425 Z M1481.91008,66.6496686 L1452.16947,66.6496686 L1452.16947,32.6275738 L1481.91008,32.6275738 C1495.03401,32.6275738 1501.39311,38.1618282 1501.39311,49.6367173 C1501.39311,61.1178034 1495.03423,66.6501912 1481.91008,66.6501912 L1481.91008,66.6496686 Z" id="Shape" fill-rule="nonzero"></path>
            <path d="M1161.68497,3.72670807 L1120.92372,3.72670807 L1068.63354,147.204969 L1105.0705,147.204969 L1112.89445,123.018093 L1169.50698,123.018093 L1177.53812,147.204969 L1213.97516,147.204969 L1161.68497,3.72670807 Z M1122.15614,94.9360665 L1141.30454,37.3429976 L1160.24349,94.9360665 L1122.15614,94.9360665 Z" id="Shape" fill-rule="nonzero"></path>
            <path d="M731.252595,3.72670807 L690.48856,3.72670807 L638.198758,147.204969 L674.637641,147.204969 L682.462433,123.018093 L739.072513,123.018093 L747.101489,147.204969 L783.540373,147.204969 L731.252595,3.72670807 Z M691.725817,94.9361411 L710.87159,37.3430723 L729.809053,94.9361411 L691.725817,94.9361411 Z" id="Shape" fill-rule="nonzero"></path>
            <polygon id="Path" points="530.844144 60.7088638 530.844144 3.72670807 497.515528 3.72670807 497.515528 147.204969 530.844144 147.204969 530.844144 89.6105835 592.765834 89.6105835 592.765834 147.204969 626.086957 147.204969 626.086957 3.72670807 592.765834 3.72670807 592.765834 60.7088638"></polygon>
            <polygon id="Path" points="409.151577 32.6284278 409.151577 147.204969 442.393744 147.204969 442.393744 32.6284278 482.608696 32.6284278 482.608696 3.72670807 368.944099 3.72670807 368.944099 32.6284278"></polygon>
            <polygon id="Path" points="287.58013 147.204969 287.58013 92.8957183 350.346449 92.8957183 350.346449 63.9865324 287.58013 63.9865324 287.58013 32.6284278 354.037267 32.6284278 354.037267 3.72670807 254.347826 3.72670807 254.347826 147.204969"></polygon>
            <path d="M107.142857,2.79503106 L107.142857,90.7066694 C107.142857,125.706149 126.734146,150 171.066192,150 C215.193122,150 234.782609,125.706149 234.782609,90.7066694 L234.782609,2.79503106 L201.377465,2.79503106 L201.377465,88.6459796 C201.377465,110.676215 191.270653,120.35236 171.066117,120.35236 C150.652109,120.35236 140.547175,110.676215 140.547175,88.6459796 L140.547175,2.79503106 L107.142857,2.79503106 Z" id="Path"></path>
            <polygon id="Path" points="0 3.72670807 0 147.204969 98.757764 147.204969 98.757764 118.303249 33.2129543 118.303249 33.2129543 3.72670807"></polygon>
        </g>
    </g>
</svg>